<svg width="1200" height="720" viewBox="0 0 1200 720" fill="none" xmlns="http://www.w3.org/2000/svg">
  <rect width="1200" height="720" rx="36" fill="#F4F7FB"/>
  <rect x="28" y="28" width="1144" height="664" rx="30" fill="white" stroke="#E5ECF5" stroke-width="2"/>
  <rect x="72" y="84" width="184" height="560" rx="28" fill="#0F172A"/>
  <circle cx="128" cy="138" r="28" fill="#93C5FD"/>
  <rect x="104" y="220" width="120" height="18" rx="9" fill="#1E293B"/>
  <rect x="104" y="264" width="120" height="18" rx="9" fill="#1E293B"/>
  <rect x="104" y="308" width="120" height="18" rx="9" fill="#1E293B"/>
  <rect x="104" y="352" width="120" height="18" rx="9" fill="#1E293B"/>
  <rect x="104" y="396" width="120" height="18" rx="9" fill="#1E293B"/>
  <rect x="294" y="84" width="834" height="140" rx="28" fill="url(#paint0_linear)"/>
  <text x="338" y="132" fill="#1E3A8A" font-family="Arial, Helvetica, sans-serif" font-size="18" font-weight="700">EXAMMATE</text>
  <text x="338" y="186" fill="#0F172A" font-family="Arial, Helvetica, sans-serif" font-size="46" font-weight="700">세트 선택부터 바로 시작하는 학습 홈</text>
  <rect x="294" y="250" width="398" height="196" rx="28" fill="#FFF7ED" stroke="#FED7AA" stroke-width="2"/>
  <rect x="724" y="250" width="404" height="196" rx="28" fill="#EFF6FF" stroke="#BFDBFE" stroke-width="2"/>
  <text x="330" y="304" fill="#C2410C" font-family="Arial, Helvetica, sans-serif" font-size="16" font-weight="700">CURRENT SET</text>
  <text x="330" y="352" fill="#0F172A" font-family="Arial, Helvetica, sans-serif" font-size="34" font-weight="700">AWS SAA 전체 세트</text>
  <text x="330" y="394" fill="#475569" font-family="Arial, Helvetica, sans-serif" font-size="20">문제 범위를 지정하고 일반 / 랜덤 / 시험 모드로 바로 시작</text>
  <rect x="330" y="406" width="152" height="34" rx="17" fill="#F97316" fill-opacity="0.12"/>
  <text x="357" y="429" fill="#C2410C" font-family="Arial, Helvetica, sans-serif" font-size="16" font-weight="700">1 ~ 725</text>
  <text x="760" y="304" fill="#2563EB" font-family="Arial, Helvetica, sans-serif" font-size="16" font-weight="700">LEARNING ENTRY</text>
  <text x="760" y="352" fill="#0F172A" font-family="Arial, Helvetica, sans-serif" font-size="34" font-weight="700">학습 시작</text>
  <rect x="760" y="384" width="140" height="44" rx="22" fill="#1D4ED8"/>
  <text x="795" y="412" fill="white" font-family="Arial, Helvetica, sans-serif" font-size="18" font-weight="700">일반 모드</text>
  <rect x="914" y="384" width="140" height="44" rx="22" fill="#0F766E"/>
  <text x="949" y="412" fill="white" font-family="Arial, Helvetica, sans-serif" font-size="18" font-weight="700">시험 모드</text>
  <rect x="294" y="474" width="252" height="170" rx="26" fill="#F8FAFC" stroke="#E2E8F0" stroke-width="2"/>
  <rect x="572" y="474" width="252" height="170" rx="26" fill="#F8FAFC" stroke="#E2E8F0" stroke-width="2"/>
  <rect x="850" y="474" width="278" height="170" rx="26" fill="#F8FAFC" stroke="#E2E8F0" stroke-width="2"/>
  <text x="326" y="526" fill="#334155" font-family="Arial, Helvetica, sans-serif" font-size="15" font-weight="700">CONTINUE</text>
  <text x="326" y="570" fill="#0F172A" font-family="Arial, Helvetica, sans-serif" font-size="28" font-weight="700">세트별 이어풀기</text>
  <text x="326" y="604" fill="#64748B" font-family="Arial, Helvetica, sans-serif" font-size="18">세트 · 범위 · 모드별 복원</text>
  <text x="604" y="526" fill="#334155" font-family="Arial, Helvetica, sans-serif" font-size="15" font-weight="700">REVIEW</text>
  <text x="604" y="570" fill="#0F172A" font-family="Arial, Helvetica, sans-serif" font-size="28" font-weight="700">오답 복습</text>
  <text x="604" y="604" fill="#64748B" font-family="Arial, Helvetica, sans-serif" font-size="18">세트별 오답만 다시 풀기</text>
  <text x="882" y="526" fill="#334155" font-family="Arial, Helvetica, sans-serif" font-size="15" font-weight="700">IMPORT</text>
  <text x="882" y="570" fill="#0F172A" font-family="Arial, Helvetica, sans-serif" font-size="28" font-weight="700">PDF 가져오기</text>
  <text x="882" y="604" fill="#64748B" font-family="Arial, Helvetica, sans-serif" font-size="18">업로드 → 자동 변환 → 검수 → 저장</text>
  <defs>
    <linearGradient id="paint0_linear" x1="294" y1="84" x2="1128" y2="224" gradientUnits="userSpaceOnUse">
      <stop stop-color="#FFF7ED"/>
      <stop offset="0.5" stop-color="#EFF6FF"/>
      <stop offset="1" stop-color="#ECFDF5"/>
    </linearGradient>
  </defs>
</svg>
